{"accessors":[{"bufferView":1,"componentType":5126,"count":475,"max":[-79.4284362792969,42.5715637207031,325.189117431641],"min":[-176.812896728516,-72.9120330810547,293.773986816406],"type":"VEC3"},{"bufferView":2,"componentType":5123,"count":475,"type":"SCALAR"},{"bufferView":3,"componentType":5126,"count":475,"type":"VEC3"},{"bufferView":4,"componentType":5126,"count":475,"type":"VEC2"},{"bufferView":5,"componentType":5123,"count":1116,"type":"SCALAR"}],"asset":{"generator":"cesiumlab","version":"2.0"},"bufferViews":[{"buffer":0,"byteLength":19446,"byteOffset":0,"byteStride":0,"target":34962},{"buffer":0,"byteLength":5700,"byteOffset":19448,"byteStride":0,"target":34962},{"buffer":0,"byteLength":950,"byteOffset":25148,"byteStride":0,"target":34962},{"buffer":0,"byteLength":5700,"byteOffset":26100,"byteStride":0,"target":34962},{"buffer":0,"byteLength":3800,"byteOffset":31800,"byteStride":0,"target":34962},{"buffer":0,"byteLength":2232,"byteOffset":35600,"byteStride":0,"target":34963}],"buffers":[{"byteLength":37832,"uri":"one.bin"}],"images":[{"bufferView":0,"mimeType":"image/jpeg"}],"materials":[{"emissiveFactor":[0.5,0.5,0.5],"emissiveTexture":{"index":0.0,"texCoord":0.0},"pbrMetallicRoughness":{"baseColorFactor":[1.0,1.0,1.0,1.0],"baseColorTexture":{"index":0.0,"texCoord":0.0},"metallicFactor":0.0,"roughnessFactor":1.0}}],"meshes":[{"primitives":[{"attributes":{"NORMAL":2,"POSITION":0,"TEXCOORD_0":3,"_BATCHID":1},"indices":4,"material":0,"mode":4}]}],"nodes":[{"mesh":0,"name":""},{"children":[0.0],"name":""}],"samplers":[{"magFilter":9729,"minFilter":9987,"wrapS":33071,"wrapT":33071}],"scene":0,"scenes":[{"nodes":[1.0]}],"textures":[{"sampler":0,"source":0}]}